<svg xmlns="http://www.w3.org/2000/svg" width="292" height="292" viewBox="0 0 292 292"><path id="Rectangle-copy-14" fill="#18314e" fill-rule="evenodd" stroke="none" visibility="hidden" d="M 276.566467 291.081757 L -15.219027 291.081757 L -15.219027 -0.655884 L 276.566467 -0.655884 L 276.566467 291.081757 Z M 262.258606 276.773895 L -0.911178 276.773895 L -0.911178 13.651964 L 262.258606 13.651964 L 262.258606 276.773895 Z"></path><path id="White-BG" fill="#ffffff" fill-rule="evenodd" stroke="none" visibility="hidden" d="M -478.349762 583.606445 L 1208.863037 583.606445 L 1208.863037 -398.909302 L -478.349762 -398.909302 Z"></path><g id="Group"><path id="Icon" fill="#18314e" fill-rule="evenodd" stroke="none" d="M 0 292 L 291.785492 292 L 291.785492 257.179993 C 289.974579 254.234375 288.075134 254.139938 281.90802 252.98082 C 243.218201 245.709061 118.205963 217.915009 126.606544 159.51123 C 131.812469 123.317947 169.79982 124.73764 176.250717 125.535614 C 187.545898 126.932831 195.314087 129.67157 199.980286 131.316666 C 204.303116 132.840698 205.964386 133.425903 205.299942 131.136902 C 195.532837 97.490067 174.609238 77.485855 144.306442 74.892517 C 61.14632 67.775589 22.575865 139.782547 14.169439 158.02739 L 14.169439 12.527405 L 277.353638 12.527405 L 277.353638 151.901718 L 268.401978 161.730698 C 269.283142 162.858612 270.140381 163.896881 270.924927 164.758301 C 272.681396 166.68692 274.923157 168.993683 277.353638 171.42067 L 277.353638 171.55162 C 281.470306 175.658203 286.11026 180.094681 289.844574 183.618332 C 287.151855 182.521606 282.512177 180.503235 280.117096 178.713348 C 269.880432 171.063385 255.640488 152.584442 250.153824 146.202332 C 249.248947 145.14978 249.020279 144.847168 248.724182 144.75 C 248.569061 144.699112 248.395447 144.70462 248.096375 144.688232 C 247.46553 144.653641 245.164108 147.107544 245.164108 147.107544 L 242.462662 150.073761 C 242.031296 149.659378 241.140045 148.8815 240.487274 148.837662 C 239.855499 148.795227 239.226517 149.666229 239.226517 149.666229 L 236.727142 152.319168 L 207.237747 184.698608 C 204.390594 185.650146 193.412964 189.344101 192.175995 190.143478 C 190.720184 191.084244 187.11528 192.54126 185.456879 194.236359 C 164.475235 194.070541 149.17392 193.925507 149.17392 193.925507 C 149.17392 193.925507 162.120331 208.395477 196.85318 222.644318 C 245.809631 242.728363 276.013458 244.727356 286.933655 244.634857 C 287.232605 244.632324 287.504608 244.631927 287.753571 244.631561 C 290.069427 244.628143 290.386566 244.627686 291.785461 242.939804 L 291.785492 242.92421 L 291.785492 0.26236 L 0 0.26236 Z"></path></g></svg>